<?xml version="1.0" encoding="UTF-8" standalone="no"?>
<svg
   xmlns:dc="http://purl.org/dc/elements/1.1/"
   xmlns:cc="http://creativecommons.org/ns#"
   xmlns:rdf="http://www.w3.org/1999/02/22-rdf-syntax-ns#"
   xmlns:svg="http://www.w3.org/2000/svg"
   xmlns="http://www.w3.org/2000/svg"
   viewBox="0 0 347.10666 120.44"
   height="120.44"
   width="347.10666"
   xml:space="preserve"
   id="svg2"
   version="1.1"><metadata
     id="metadata8"><rdf:RDF><cc:Work
         rdf:about=""><dc:format>image/svg+xml</dc:format><dc:type
           rdf:resource="http://purl.org/dc/dcmitype/StillImage" /></cc:Work></rdf:RDF></metadata><defs
     id="defs6" /><g
     transform="matrix(1.3333333,0,0,-1.3333333,0,120.44)"
     id="g10"><g
       transform="scale(0.1)"
       id="g12"><path
         id="path14"
         style="fill:#64389d;fill-opacity:1;fill-rule:nonzero;stroke:none"
         d="M 640.941,489.656 V 282.051 h -34.128 v 207.605 z m -34.128,37.352 v 41.762 h 34.128 v -41.762 h -34.128" /><path
         id="path16"
         style="fill:#64389d;fill-opacity:1;fill-rule:nonzero;stroke:none"
         d="m 714.023,489.656 v -32.922 h 0.801 c 14.184,25.157 36.676,37.743 67.461,37.743 13.656,0 25.028,-1.875 34.137,-5.622 9.098,-3.753 16.465,-8.972 22.086,-15.664 5.617,-6.691 9.566,-14.652 11.844,-23.89 2.269,-9.235 3.414,-19.477 3.414,-30.715 V 282.051 h -34.133 v 140.547 c 0,12.851 -3.754,23.023 -11.242,30.515 -7.496,7.496 -17.809,11.246 -30.918,11.246 -10.446,0 -19.481,-1.605 -27.114,-4.816 -7.625,-3.215 -13.988,-7.77 -19.07,-13.652 -5.09,-5.895 -8.902,-12.789 -11.445,-20.68 -2.547,-7.902 -3.813,-16.535 -3.813,-25.902 V 282.051 h -34.136 v 207.605 h 32.128" /><path
         id="path18"
         style="fill:#64389d;fill-opacity:1;fill-rule:nonzero;stroke:none"
         d="m 923.035,352.125 c 3.348,-9.777 7.965,-17.941 13.86,-24.496 5.882,-6.566 12.777,-11.582 20.679,-15.063 7.891,-3.48 16.266,-5.218 25.098,-5.218 8.832,0 17.195,1.738 25.098,5.218 7.89,3.481 14.79,8.497 20.68,15.063 5.89,6.555 10.5,14.719 13.85,24.496 3.35,9.77 5.02,20.941 5.02,33.527 0,12.578 -1.67,23.758 -5.02,33.532 -3.35,9.769 -7.96,18.004 -13.85,24.699 -5.89,6.687 -12.79,11.777 -20.68,15.258 -7.903,3.476 -16.266,5.218 -25.098,5.218 -8.832,0 -17.207,-1.742 -25.098,-5.218 -7.902,-3.481 -14.797,-8.571 -20.679,-15.258 -5.895,-6.695 -10.512,-14.93 -13.86,-24.699 -3.347,-9.774 -5.015,-20.954 -5.015,-33.532 0,-12.586 1.668,-23.757 5.015,-33.527 z m -34.734,76.297 c 4.281,13.254 10.707,24.758 19.277,34.531 8.567,9.774 19.137,17.473 31.723,23.094 12.578,5.617 27.039,8.43 43.371,8.43 16.598,0 31.118,-2.813 43.568,-8.43 12.45,-5.621 22.95,-13.32 31.52,-23.094 8.57,-9.773 14.99,-21.277 19.28,-34.531 4.28,-13.25 6.42,-27.508 6.42,-42.77 0,-15.257 -2.14,-29.453 -6.42,-42.562 -4.29,-13.117 -10.71,-24.567 -19.28,-34.336 -8.57,-9.774 -19.07,-17.406 -31.52,-22.891 -12.45,-5.48 -26.97,-8.23 -43.568,-8.23 -16.332,0 -30.793,2.75 -43.371,8.23 -12.586,5.485 -23.156,13.117 -31.723,22.891 -8.57,9.769 -14.996,21.219 -19.277,34.336 -4.281,13.109 -6.422,27.305 -6.422,42.562 0,15.262 2.141,29.52 6.422,42.77" /><path
         id="path20"
         style="fill:#64389d;fill-opacity:1;fill-rule:nonzero;stroke:none"
         d="m 1140.28,355.738 c 2.54,-9.234 6.42,-17.468 11.64,-24.699 5.22,-7.226 11.91,-12.988 20.08,-17.266 8.16,-4.285 17.73,-6.425 28.71,-6.425 11.51,0 21.28,2.269 29.31,6.828 8.04,4.551 14.59,10.504 19.68,17.871 5.09,7.355 8.77,15.723 11.05,25.098 2.27,9.363 3.41,18.871 3.41,28.507 0,10.172 -1.21,20.012 -3.61,29.52 -2.42,9.496 -6.23,17.863 -11.45,25.098 -5.22,7.226 -11.99,13.05 -20.28,17.464 -8.3,4.418 -18.34,6.625 -30.11,6.625 -11.52,0 -21.29,-2.273 -29.32,-6.824 -8.03,-4.558 -14.46,-10.578 -19.28,-18.07 -4.81,-7.496 -8.3,-16.063 -10.44,-25.699 -2.14,-9.641 -3.21,-19.547 -3.21,-29.719 0,-9.637 1.27,-19.07 3.82,-28.309 z m 123.44,-162.383 -0.77,116.805 h -0.8 c -5.62,-11.512 -14.45,-19.812 -26.5,-24.894 -12.05,-5.086 -25.3,-7.633 -39.76,-7.633 -16.06,0 -30.05,2.949 -41.96,8.836 -11.91,5.883 -21.83,13.785 -29.72,23.691 -7.9,9.903 -13.85,21.418 -17.87,34.531 -4.01,13.118 -6.02,27.043 -6.02,41.762 0,14.723 1.94,28.649 5.82,41.766 3.88,13.113 9.77,24.558 17.67,34.336 7.89,9.769 17.8,17.527 29.72,23.289 11.9,5.754 25.76,8.633 41.56,8.633 5.35,0 11.11,-0.536 17.27,-1.606 6.15,-1.074 12.31,-2.883 18.47,-5.422 6.15,-2.547 11.98,-5.89 17.47,-10.039 5.48,-4.152 10.1,-9.305 13.85,-15.457 h 0.8 v 27.703 h 34.13 V 193.355 h -33.36" /><path
         id="path22"
         style="fill:#64389d;fill-opacity:1;fill-rule:nonzero;stroke:none"
         d="m 1477.38,282.051 v 32.929 h -0.8 c -7.23,-12.851 -16.46,-22.289 -27.71,-28.308 -11.24,-6.027 -24.49,-9.039 -39.75,-9.039 -13.66,0 -25.04,1.805 -34.13,5.426 -9.11,3.613 -16.47,8.761 -22.09,15.457 -5.62,6.687 -9.57,14.66 -11.85,23.89 -2.28,9.239 -3.41,19.481 -3.41,30.723 v 136.527 h 34.13 V 349.109 c 0,-12.847 3.75,-23.023 11.25,-30.515 7.49,-7.5 17.8,-11.246 30.92,-11.246 10.44,0 19.47,1.605 27.1,4.82 7.63,3.215 13.99,7.766 19.08,13.652 5.08,5.891 8.89,12.782 11.44,20.684 2.54,7.891 3.82,16.523 3.82,25.898 v 117.254 h 34.13 V 282.051 h -32.13" /><path
         id="path24"
         style="fill:#64389d;fill-opacity:1;fill-rule:nonzero;stroke:none"
         d="m 1578.78,352.125 c 3.34,-9.777 7.96,-17.941 13.86,-24.496 5.88,-6.566 12.78,-11.582 20.68,-15.063 7.89,-3.48 16.26,-5.218 25.09,-5.218 8.84,0 17.2,1.738 25.1,5.218 7.9,3.481 14.79,8.497 20.68,15.063 5.89,6.555 10.5,14.719 13.86,24.496 3.34,9.77 5.02,20.941 5.02,33.527 0,12.578 -1.68,23.758 -5.02,33.532 -3.36,9.769 -7.97,18.004 -13.86,24.699 -5.89,6.687 -12.78,11.777 -20.68,15.258 -7.9,3.476 -16.26,5.218 -25.1,5.218 -8.83,0 -17.2,-1.742 -25.09,-5.218 -7.9,-3.481 -14.8,-8.571 -20.68,-15.258 -5.9,-6.695 -10.52,-14.93 -13.86,-24.699 -3.35,-9.774 -5.02,-20.954 -5.02,-33.532 0,-12.586 1.67,-23.757 5.02,-33.527 z m -34.74,76.297 c 4.29,13.254 10.71,24.758 19.28,34.531 8.56,9.774 19.14,17.473 31.72,23.094 12.58,5.617 27.04,8.43 43.37,8.43 16.6,0 31.13,-2.813 43.57,-8.43 12.45,-5.621 22.96,-13.32 31.53,-23.094 8.56,-9.773 14.99,-21.277 19.27,-34.531 4.28,-13.25 6.42,-27.508 6.42,-42.77 0,-15.257 -2.14,-29.453 -6.42,-42.562 -4.28,-13.117 -10.71,-24.567 -19.27,-34.336 -8.57,-9.774 -19.08,-17.406 -31.53,-22.891 -12.44,-5.48 -26.97,-8.23 -43.57,-8.23 -16.33,0 -30.79,2.75 -43.37,8.23 -12.58,5.485 -23.16,13.117 -31.72,22.891 -8.57,9.769 -14.99,21.219 -19.28,34.336 -4.28,13.109 -6.42,27.305 -6.42,42.562 0,15.262 2.14,29.52 6.42,42.77" /><path
         id="path26"
         style="fill:#64389d;fill-opacity:1;fill-rule:nonzero;stroke:none"
         d="M 1856.05,489.656 V 459.543 H 1814.7 V 330.641 c 0,-4.016 0.33,-7.227 1,-9.641 0.67,-2.406 1.94,-4.281 3.82,-5.617 1.87,-1.344 4.47,-2.207 7.82,-2.613 3.35,-0.403 7.7,-0.602 13.06,-0.602 h 15.65 v -30.117 h -26.09 c -8.84,0 -16.41,0.601 -22.69,1.804 -6.3,1.208 -11.39,3.415 -15.26,6.629 -3.88,3.211 -6.77,7.762 -8.64,13.653 -1.87,5.886 -2.81,13.652 -2.81,23.289 v 132.117 h -35.34 v 30.113 h 35.34 v 62.246 h 34.14 v -62.246 h 41.35" /><path
         id="path28"
         style="fill:#64389d;fill-opacity:1;fill-rule:nonzero;stroke:none"
         d="m 2020.49,428.621 c -3.08,7.231 -7.22,13.453 -12.44,18.676 -5.22,5.219 -11.38,9.363 -18.47,12.445 -7.1,3.074 -14.93,4.617 -23.5,4.617 -8.83,0 -16.8,-1.543 -23.89,-4.617 -7.1,-3.082 -13.19,-7.297 -18.27,-12.648 -5.09,-5.36 -9.11,-11.582 -12.05,-18.672 -2.95,-7.098 -4.68,-14.656 -5.22,-22.692 h 119.27 c -0.54,8.036 -2.35,15.661 -5.43,22.891 z m 8.24,-133.316 c -15.53,-11.785 -35.08,-17.672 -58.63,-17.672 -16.6,0 -30.99,2.68 -43.17,8.031 -12.18,5.352 -22.42,12.852 -30.72,22.488 -8.3,9.637 -14.53,21.145 -18.67,34.532 -4.16,13.386 -6.5,27.976 -7.03,43.769 0,15.797 2.41,30.25 7.23,43.371 4.82,13.114 11.58,24.496 20.28,34.137 8.69,9.637 19,17.129 30.92,22.484 11.91,5.352 24.96,8.032 39.15,8.032 18.47,0 33.79,-3.813 45.98,-11.446 12.18,-7.625 21.95,-17.332 29.31,-29.109 7.36,-11.781 12.45,-24.637 15.26,-38.551 2.82,-13.926 3.95,-27.18 3.42,-39.758 h -155.41 c -0.27,-9.105 0.81,-17.738 3.21,-25.902 2.42,-8.168 6.29,-15.395 11.65,-21.68 5.35,-6.293 12.18,-11.312 20.48,-15.058 8.29,-3.754 18.07,-5.625 29.31,-5.625 14.46,0 26.31,3.343 35.54,10.039 9.24,6.691 15.32,16.867 18.27,30.519 h 33.73 c -4.55,-23.293 -14.59,-40.828 -30.11,-52.601" /><path
         id="path30"
         style="fill:#64389d;fill-opacity:1;fill-rule:nonzero;stroke:none"
         d="m 2219.42,453.52 c -8.57,7.226 -20.07,10.839 -34.53,10.839 -12.32,0 -22.63,-2.273 -30.93,-6.824 -8.3,-4.558 -14.92,-10.578 -19.87,-18.07 -4.96,-7.496 -8.5,-16.137 -10.64,-25.902 -2.15,-9.774 -3.22,-19.875 -3.22,-30.317 0,-9.637 1.14,-19.012 3.42,-28.109 2.27,-9.106 5.82,-17.207 10.64,-24.297 4.82,-7.094 11.11,-12.789 18.87,-17.067 7.77,-4.285 17,-6.425 27.71,-6.425 16.87,0 30.05,4.418 39.55,13.254 9.51,8.832 15.33,21.285 17.48,37.343 h 34.93 c -3.75,-25.699 -13.32,-45.511 -28.71,-59.429 -15.4,-13.926 -36.34,-20.883 -62.85,-20.883 -15.8,0 -29.78,2.547 -41.96,7.633 -12.19,5.082 -22.36,12.308 -30.52,21.683 -8.17,9.364 -14.32,20.539 -18.47,33.528 -4.15,12.984 -6.22,27.238 -6.22,42.769 0,15.524 2,30.047 6.02,43.57 4.02,13.516 10.1,25.297 18.27,35.336 8.16,10.039 18.4,17.93 30.72,23.692 12.31,5.754 26.63,8.633 42.97,8.633 11.77,0 22.82,-1.407 33.13,-4.211 10.3,-2.817 19.4,-7.168 27.3,-13.055 7.9,-5.895 14.39,-13.32 19.48,-22.289 5.08,-8.969 8.29,-19.609 9.64,-31.926 h -35.34 c -2.68,13.117 -8.3,23.293 -16.87,30.524" /><path
         id="path32"
         style="fill:#64389d;fill-opacity:1;fill-rule:nonzero;stroke:none"
         d="M 2333.06,568.77 V 459.141 h 0.8 c 2.68,6.425 6.43,11.843 11.25,16.265 4.82,4.414 10.24,8.032 16.26,10.84 6.02,2.813 12.31,4.883 18.87,6.227 6.56,1.336 12.92,2.004 19.08,2.004 13.65,0 25.03,-1.875 34.13,-5.622 9.1,-3.753 16.47,-8.972 22.1,-15.664 5.6,-6.691 9.55,-14.652 11.83,-23.89 2.27,-9.235 3.42,-19.477 3.42,-30.715 V 282.051 h -34.13 v 140.547 c 0,12.851 -3.76,23.023 -11.25,30.515 -7.5,7.496 -17.81,11.246 -30.92,11.246 -10.44,0 -19.48,-1.605 -27.11,-4.816 -7.62,-3.215 -13.99,-7.77 -19.07,-13.652 -5.09,-5.895 -8.9,-12.789 -11.44,-20.68 -2.55,-7.902 -3.82,-16.535 -3.82,-25.902 V 282.051 h -34.13 V 568.77 h 34.13" /><g
         transform="scale(10)"
         id="g34"><text
           id="text38"
           style="font-variant:normal;font-weight:normal;font-size:7.19999981px;font-family:HelveticaNeue;-inkscape-font-specification:HelveticaNeue;writing-mode:lr-tb;fill:#7b7979;fill-opacity:1;fill-rule:nonzero;stroke:none"
           transform="matrix(1,0,0,-1,139.357,19.3355)"><tspan
             id="tspan36"
             y="0"
             x="0 5.5727568 12.484872 19.396988 25.905781 29.34766 35.45314 41.558609 47.131351 52.970234 58.542976 64.648445 68.089867 73.929222 79.768105 85.873573 91.712448 97.955147 103.52789">FOOD SAFETY EXPERTS</tspan></text>
</g><path
         id="path40"
         style="fill:#8dd13c;fill-opacity:1;fill-rule:evenodd;stroke:none"
         d="m 437.016,770.375 c 4.199,-17.176 -4.621,-35.43 -19.707,-40.816 -15.086,-5.387 -31.254,3.988 -36.121,20.894 -4.879,16.91 3.917,35.149 19.664,40.793 15.734,5.649 31.976,-3.695 36.164,-20.871 z m -27.528,-72.41 c 6.16,-22.047 -3.976,-45.324 -22.601,-51.942 -18.645,-6.613 -39.707,5.559 -46.992,27.176 -7.29,21.629 2.832,44.86 22.617,51.899 19.777,7.043 40.816,-5.086 46.976,-27.133 z M 246.609,449.195 c -7.796,15.789 -3.468,32.313 9.739,36.957 13.218,4.641 29.703,-4.558 36.836,-20.589 7.105,-16.036 2.789,-32.614 -9.75,-37.004 -12.516,-4.399 -29.032,4.843 -36.825,20.636 z m 2.043,-50.418 c -5.207,10.028 -2.89,20.469 5.164,23.282 8.055,2.82 18.543,-3.094 23.469,-13.254 4.922,-10.153 2.598,-20.567 -5.168,-23.274 -7.765,-2.722 -18.254,3.219 -23.465,13.246 z m 9.282,-36.101 c -3.114,5.914 -1.961,12.012 2.586,13.597 4.546,1.582 10.714,-1.937 13.734,-7.894 3.016,-5.957 1.906,-12.051 -2.543,-13.59 -4.453,-1.562 -10.66,1.961 -13.777,7.887 z m 275.918,-0.488 c 2.589,-11.805 -3.661,-25.493 -13.981,-30.172 -10.32,-4.688 -21.301,1.601 -24.527,13.785 -3.242,12.183 3.015,25.472 13.98,29.804 10.981,4.329 21.938,-1.617 24.528,-13.417 z m -19.528,-53.551 c 4.02,-15.746 -2.816,-33.774 -15.414,-39.387 -12.605,-5.621 -27.074,3.316 -32.164,19.305 -5.074,15.992 1.953,33.031 15.609,38.461 13.657,5.441 27.961,-2.637 31.969,-18.379 z M 397.402,140.414 c -5.308,11.004 -0.871,19.828 9.344,20.527 10.227,0.719 22.192,-7.449 27.215,-19.148 5.004,-11.711 1.547,-22.035 -8.402,-22.059 -9.95,-0.023 -22.832,9.676 -28.157,20.68 z m -2.445,-27.937 c -3.441,6.789 -0.391,11.355 6.449,10.707 6.86,-0.661 14.899,-6.614 18.278,-13.774 3.367,-7.164 0.875,-12.5467 -5.918,-11.5428 -6.793,1 -15.364,7.8238 -18.809,14.6098 z m 55.617,714.277 c 2.508,-11.07 -3.621,-22.969 -13.687,-26.574 -10.078,-3.61 -20.496,2.379 -23.274,13.32 -2.777,10.953 3.344,22.863 13.692,26.574 10.347,3.703 20.754,-2.261 23.269,-13.32 v 0" /><path
         id="path42"
         style="fill:#64389d;fill-opacity:1;fill-rule:evenodd;stroke:none"
         d="m 207.855,626.246 c 9.465,-20.773 32.297,-32.285 50.961,-25.664 18.645,6.613 26.981,29.231 18.668,50.43 -8.304,21.215 -31.129,32.683 -50.929,25.633 -19.801,-7.055 -28.153,-29.625 -18.7,-50.399 z m -67.82,38.129 c 7.836,-15.777 26.367,-24.176 41.43,-18.801 15.062,5.379 21.523,22.688 14.398,38.727 -7.101,16.031 -25.675,24.523 -41.445,18.887 -15.766,-5.633 -22.223,-23.032 -14.383,-38.813 z m -46.7811,34.574 c 5.1992,-10.031 17.6761,-15.238 27.7071,-11.644 10.023,3.597 14.254,14.711 9.312,24.859 -4.929,10.149 -17.308,15.375 -27.656,11.664 -10.3514,-3.711 -14.5389,-14.851 -9.3631,-24.879 z M 442.273,580.523 c -6.164,22.043 -25.851,34.735 -43.953,28.321 -18.109,-6.434 -26.879,-29.153 -19.59,-50.778 7.286,-21.617 26.993,-34.296 43.958,-28.304 16.964,5.992 25.734,28.715 19.585,50.761 z m 52.067,-44.195 c -4.184,17.172 -18.305,27.274 -31.543,22.613 -13.223,-4.644 -19.926,-22.089 -15.059,-38.996 4.883,-16.91 18.992,-27.05 31.535,-22.675 12.52,4.378 19.262,21.886 15.067,39.058 z M 432.102,229.652 c 7.019,-18.246 24.558,-30.019 38.695,-25.019 14.129,5.008 20.605,25.094 14.824,43.722 -5.781,18.633 -22.734,28.797 -38.121,23.438 -15.395,-5.371 -22.418,-23.895 -15.398,-42.141 z m -58.465,30.168 c 6.633,-15.019 23.199,-25.023 36.554,-21.652 13.364,3.379 19.149,19.437 13.239,35.211 -5.914,15.758 -21.981,24.891 -36.106,20.777 -14.105,-4.113 -20.32,-19.316 -13.687,-34.336 z m -48.68,30.723 c 5.309,-11.012 18.742,-18.086 29.809,-15.52 11.054,2.575 15.726,14.395 10.703,26.079 -5.031,11.703 -18.172,18.402 -29.516,15.144 -11.336,-3.258 -16.281,-14.687 -10.996,-25.703 z m -32.867,25.273 c 3.433,-6.796 12.242,-10.828 19.558,-8.902 7.321,1.918 10.52,9.356 7.137,16.52 -3.394,7.152 -12.097,11.058 -19.492,8.793 -7.402,-2.278 -10.637,-9.61 -7.203,-16.411 z m -19.164,20.086 c 2.039,-3.961 7.265,-6.074 11.644,-4.718 4.383,1.339 6.282,5.734 4.258,9.836 -2.035,4.101 -7.207,6.16 -11.609,4.683 -4.383,-1.5 -6.336,-5.84 -4.293,-9.801 z M 536.094,221.547 c -4.02,15.754 -16.992,23.176 -29.125,17.437 -12.129,-5.742 -17.922,-22.718 -12.844,-38.711 5.074,-15.992 18.309,-25.003 29.367,-19.066 11.074,5.922 16.641,24.578 12.602,40.34 z m 28.687,-38.918 c -1.867,8.488 -8.32,11.57 -14.461,7.476 -6.144,-4.093 -9.211,-14.144 -6.89,-22.914 2.324,-8.757 8.816,-12.8 14.504,-8.453 5.675,4.352 8.711,15.371 6.847,23.891 z M 321.715,503.215 c 8.496,-21.141 29.773,-33.227 47.48,-26.977 17.715,6.242 26.27,28.93 19.118,50.61 -7.176,21.668 -28.434,33.718 -47.485,26.929 -19.027,-6.773 -27.613,-29.441 -19.113,-50.562 z m -70.176,30.047 c 8.109,-17.84 27.715,-27.731 43.734,-22.035 16.02,5.671 23.168,25.089 16.04,43.3 -7.129,18.207 -26.723,28.055 -43.723,21.996 -17.004,-6.05 -24.184,-25.437 -16.051,-43.261 z m -58.242,32.718 c 6.742,-13.535 22.641,-20.746 35.574,-16.132 12.938,4.617 18.477,19.476 12.375,33.254 -6.109,13.769 -22.051,21.043 -35.601,16.207 -13.536,-4.836 -19.075,-19.778 -12.348,-33.329 z m -36.152,43.153 c 4.449,-8.621 15.175,-13.098 23.777,-10.008 8.609,3.094 12.242,12.637 7.988,21.34 -4.222,8.723 -14.851,13.195 -23.734,10.023 -8.875,-3.183 -12.485,-12.746 -8.031,-21.355 z M 538.199,392.078 c -1.23,5.649 -5.461,9.094 -9.367,7.735 -3.91,-1.356 -5.996,-7.004 -4.687,-12.61 1.316,-5.609 5.503,-9.074 9.328,-7.734 3.828,1.324 5.945,6.965 4.726,12.609 z M 524.18,421.23 c -2.149,9.5 -9.516,15.247 -16.422,12.84 -6.899,-2.422 -10.547,-12.011 -8.153,-21.414 2.375,-9.394 9.715,-15.168 16.379,-12.843 6.668,2.335 10.356,11.914 8.196,21.417 z m -26.684,34.825 c -3.605,14.746 -15.723,23.425 -27.086,19.422 -11.351,-3.989 -17.113,-18.973 -12.93,-33.481 4.184,-14.516 16.297,-23.23 27.067,-19.476 10.762,3.769 16.543,18.796 12.949,33.535 z M 452.781,494 c -5.281,18.926 -22.183,29.816 -37.73,24.305 -15.547,-5.508 -23.074,-25.012 -16.824,-43.578 6.261,-18.571 23.175,-29.454 37.75,-24.313 14.57,5.149 22.097,24.664 16.804,43.586 z m 5,-336.332 c 5.621,-14.617 19.66,-24.035 30.985,-20.027 11.3,4 16.484,20.086 11.863,34.992 -4.621,14.918 -18.195,23.055 -30.524,18.769 -12.316,-4.308 -17.941,-19.129 -12.324,-33.734 z m -46.804,24.145 c 5.316,-12.024 18.574,-20.047 29.273,-17.336 10.695,2.707 15.32,15.574 10.59,28.175 -4.731,12.618 -17.594,19.942 -28.887,16.649 C 410.645,206 405.668,193.832 410.977,181.813 Z m -41.118,30.597 c 4.243,-8.801 15.008,-14.472 23.864,-12.422 8.843,2.071 12.59,11.532 8.566,20.891 -4.023,9.355 -14.551,14.723 -23.629,12.109 -9.074,-2.601 -13.039,-11.761 -8.801,-20.578 z m -29.015,35.664 c 2.75,-5.433 9.793,-8.672 15.656,-7.129 5.859,1.539 8.422,7.496 5.719,13.219 -2.727,5.734 -9.692,8.863 -15.614,7.047 -5.917,-1.824 -8.503,-7.691 -5.761,-13.137 z m 199.949,-94.426 c -3.227,12.618 -13.609,18.555 -23.328,13.954 -9.707,-4.59 -14.336,-18.184 -10.281,-30.981 4.066,-12.797 14.652,-20.012 23.515,-15.269 8.867,4.742 13.309,19.671 10.094,32.296 z m 26.742,-18.898 c -2.07,9.453 -9.254,12.879 -16.082,8.32 -6.824,-4.55 -10.238,-15.718 -7.664,-25.472 2.582,-9.754 9.801,-14.246 16.129,-9.414 6.32,4.839 9.691,17.109 7.617,26.566 z m -43.824,352.383 c -2.5,11.074 -11.078,17.758 -19.117,14.957 -8.035,-2.817 -12.293,-13.988 -9.516,-24.938 2.777,-10.945 11.328,-17.664 19.098,-14.957 7.754,2.707 12.054,13.875 9.535,24.938 z M 289.605,591.254 c 9.899,-24.617 34.68,-38.699 55.305,-31.414 20.633,7.269 30.594,33.699 22.258,58.945 -8.336,25.238 -33.129,39.274 -55.293,31.371 -22.18,-7.91 -32.168,-34.289 -22.27,-58.902 v 0" /><path
         id="path44"
         style="fill:#ffffff;fill-opacity:1;fill-rule:evenodd;stroke:none"
         d="m 357.992,544.762 c 0.11,1.914 -0.937,2.5 -2.554,2.297 -6.043,-7.235 -5.063,-7.649 -6.645,-16.352 -35.523,4.746 -13.844,-50.309 2.047,-33.969 16.887,-16.203 36.894,39.84 2.297,33.465 0.183,6.324 1.176,9.531 4.855,14.559 v 0" /><path
         id="path46"
         style="fill:#ffffff;fill-opacity:1;fill-rule:evenodd;stroke:none"
         d="m 308.227,580.844 c 37.925,-1.629 43.078,16.597 48.41,46.722 -37.875,-0.586 -55.391,1.481 -54.02,-30.949 13.047,9.535 17.926,12.461 32.774,18.817 C 321.48,603.945 311,598.391 308.227,580.844 v 0" /><path
         id="path48"
         style="fill:#ffffff;fill-opacity:1;fill-rule:nonzero;stroke:none"
         d="m 240.859,622.102 c 0,0 0,0 0.293,0.117 0.45,0.203 1.606,0.043 2.227,0.125 0.613,0.082 1.195,0.453 1.406,0 0.199,-0.449 0.828,-0.625 0.574,-0.91 -0.246,-0.286 -0.031,-0.575 0.254,-0.704 0.289,-0.121 0.407,-0.285 0.739,-0.617 0.328,-0.324 1.152,-1.359 1.73,-2.187 0.578,-0.824 1.781,-2.184 2.063,-2.805 0.293,-0.625 0.832,-1.238 0.668,-1.406 -0.168,-0.164 -0.829,0.332 -1.282,0.5 -0.461,0.16 -2.441,0.16 -2.441,0.16 0,0 1.285,0.172 0.953,0.574 -0.328,0.422 -1.402,0.211 -2.066,0.211 -0.649,0 -0.993,-0.285 -1.692,0.078 -0.699,0.383 -0.949,0.172 -1.648,2.028 -0.703,1.855 -0.996,2.683 -1.285,3.261 -0.289,0.582 -0.493,1.575 -0.493,1.575 z m -32.898,23.859 c 0.105,-0.77 0.926,-0.824 1.148,-0.938 0.223,-0.113 1.094,-0.113 1.266,-0.273 0.176,-0.172 -0.937,-0.324 -1.043,-0.496 -0.109,-0.168 0.273,-0.109 0.492,-0.227 0.231,-0.105 1.051,-0.492 1.051,-0.492 0,0 -0.109,-0.5 0,-0.652 0.102,-0.168 -0.172,-0.387 -0.324,-0.664 -0.176,-0.281 0.215,-0.446 0.215,-0.446 0,0 -0.063,-0.601 0.164,-0.933 0.218,-0.328 0.55,-0.113 1.16,-0.219 0.598,-0.109 0.98,-0.391 0.98,-0.391 0,0 -0.047,-0.324 -0.16,-0.656 -0.113,-0.324 0.219,-0.39 0.379,-0.664 0.172,-0.273 1.66,-0.547 2.649,-0.656 0.992,-0.113 2.48,-0.66 2.48,-0.66 0,0 -0.559,-0.16 -1.047,-0.16 -0.5,0 -1.047,0.269 -1.32,-0.446 -0.274,-0.718 1.215,-0.496 1.215,-0.496 l -0.723,-0.551 c 0,0 0.504,-0.382 0.934,-0.496 0.437,-0.109 0.992,0 1.98,-0.054 0.992,-0.055 1.82,0.113 2.762,0.054 0.929,-0.054 1.148,-0.273 1.863,-0.5 0.719,-0.215 1.379,-0.105 2.094,0.059 0.719,0.168 1.265,0.113 1.601,-0.059 0.325,-0.164 0.438,-0.937 0.161,-1.207 -0.274,-0.281 -0.219,-1.429 -0.336,-2.254 -0.102,-0.824 0.175,-1.269 0.832,-1.324 0.66,-0.058 0.992,-1.316 1.429,-2.199 0.446,-0.883 1.098,-1.047 1.653,-1.102 0.558,-0.058 0.988,-1.371 1.433,-2.421 0.442,-1.043 0.934,-0.274 2.035,-0.61 1.102,-0.328 1.871,-0.273 2.536,-0.769 0.656,-0.496 1.207,-0.875 1.48,-1.157 0.277,-0.265 1.211,-2.199 1.652,-3.519 0.442,-1.324 0.442,-1.977 0.328,-2.477 -0.105,-0.496 -0.05,-1.047 -0.445,-1.543 -0.375,-0.496 -1.097,-0.824 -1.031,-1.043 0.047,-0.222 0.926,0 1.476,0.16 0.551,0.172 0.993,0.059 1.43,0.059 0.445,0 0.942,-0.437 1.324,-0.551 0.383,-0.113 1.325,-0.609 1.598,-0.769 0.281,-0.168 0.438,0.051 0.383,0.492 -0.051,0.441 -0.383,0.719 -0.383,0.719 0,0 1.383,-0.278 1.93,-0.328 0.547,-0.055 1.59,-0.114 1.426,-0.114 -0.157,0 -0.715,-0.718 -0.442,-0.824 0.285,-0.113 1.219,-0.226 1.766,-0.059 0.551,0.165 1.593,-0.109 2.254,-0.226 0.664,-0.106 0.769,-0.32 1.929,-0.434 1.153,-0.105 2.09,-0.5 2.813,-0.55 0.707,-0.051 1.258,-0.387 1.484,-0.387 0.215,0 0.164,0.605 -0.226,0.937 -0.379,0.328 -1.649,0.606 -1.649,0.606 0,0 2.199,0.168 2.863,0.168 0.661,0 0.715,0.383 0.942,0.601 0.215,0.227 0.433,-0.324 0.648,-0.324 0.231,0 0.395,0.055 0.278,0.324 -0.11,0.278 -0.711,0.5 -1.207,0.547 -0.496,0.063 -1.215,-0.105 -2.254,-0.164 -1.051,-0.051 -2.594,0.059 -2.594,0.059 0,0 -0.16,0.332 -0.445,0.605 -0.27,0.274 -0.703,-0.273 -1.149,-0.215 -0.441,0.047 -1.66,1.758 -2.359,2.754 -0.727,0.992 -1.711,2.364 -1.875,3.02 -0.168,0.664 0.324,1.433 0.765,1.929 0.438,0.497 2.258,1.481 3.692,2.258 1.426,0.762 3.027,1.758 4.074,2.309 1.043,0.558 1.149,0.062 1.871,-0.106 0.715,-0.171 1.102,0.106 1.703,0.825 0.602,0.718 1.426,2.422 2.153,3.851 0.707,1.434 1.875,3.578 2.195,5.231 0.332,1.644 0,3.41 -0.219,4.675 -0.219,1.266 -1.812,5.008 -2.316,6.223 -0.492,1.211 -1.317,2.754 -1.645,3.578 -0.336,0.824 -0.769,1.539 -0.769,1.539 0,0 0.879,-0.168 1.203,-0.168 0.332,0 1.156,1.102 1.488,1.711 0.324,0.606 0.063,1.985 0.063,1.985 0,0 0.55,0 0.984,-0.168 0.445,-0.164 1.156,-0.274 1.266,-0.114 0.117,0.168 -0.168,0.883 -0.493,1.383 -0.328,0.488 -0.828,0.488 -0.828,0.488 0,0 -0.058,0.391 0,0.61 0.055,0.226 -0.222,0.66 -0.332,1.375 -0.105,0.715 -0.433,1.265 -0.711,1.32 -0.273,0.051 -0.441,1.434 -0.613,1.485 -0.152,0.054 -0.324,-1.157 -0.492,-1.094 -0.164,0.051 -0.492,2.308 -0.711,2.254 -0.223,-0.055 -0.328,-1.375 -0.492,-1.489 -0.18,-0.117 -0.332,2.2 -0.5,2.2 -0.164,0 -0.278,-1.762 -0.606,-1.762 -0.328,0 -0.5,1.707 -0.664,1.707 -0.16,0 -0.277,-1.211 -0.547,-1.211 -0.277,0 -0.546,0.555 -1.05,0.273 -0.493,-0.273 -0.379,-1.324 0.062,-1.703 0.442,-0.386 0.988,-0.937 0.988,-0.937 0,0 -1.921,-0.274 -3.796,-1.207 -1.875,-0.938 -2.372,-2.477 -2.977,-4.02 -0.606,-1.543 -1.488,-5.168 -2.145,-6.273 -0.664,-1.102 -2.757,-1.543 -3.683,-1.492 -0.945,0.058 -2.59,0.55 -3.86,0.5 -1.269,-0.051 -4.949,-0.223 -6.335,-0.274 -1.375,-0.051 -6.098,0 -7.04,0.164 -0.933,0.16 -3.058,1.703 -4.289,2.477 -0.879,0.551 -2.043,1.047 -3.254,1.488 -1.21,0.438 -2.421,0.77 -4.179,1.426 -1.766,0.664 -4.903,1.105 -5.672,1.215 -0.777,0.105 -1.484,-0.824 -1.871,-1.426 -0.379,-0.609 -0.934,-1.488 -1.156,-2.039 -0.219,-0.547 -0.219,-1.543 0,-1.883 0.222,-0.32 0.711,-0.601 0.711,-0.601 0,0 -0.329,0.121 -0.606,0.121 -0.269,0 -0.605,-0.059 -0.652,-0.399 -0.055,-0.32 -0.336,-0.933 -0.219,-1.699" /><path
         id="path50"
         style="fill:#ffffff;fill-opacity:1;fill-rule:evenodd;stroke:none"
         d="m 391.988,582.004 c 0.707,-0.793 0.922,-1.867 0.485,-2.418 -0.442,-0.547 -1.364,-0.348 -2.067,0.437 -0.711,0.786 -0.914,1.864 -0.484,2.411 0.437,0.543 1.367,0.347 2.066,-0.43 z m 15.418,7.211 c -3.418,0.215 -5.363,-1.192 -8.047,-1.793 -9.929,1.238 -9.425,0.476 -15.961,-4.449 5.473,-12.016 3.668,-7.621 13.184,-17.977 1.25,-2.652 2.691,-4.598 5.699,-4.945 -1.914,2.586 -0.715,2.84 -1.148,4.437 7.058,-9.371 16.035,-6.304 24.68,-7.746 1.128,-4.976 2.707,-8.101 6.859,-12.797 -1.402,8.282 0.902,15.305 6.707,17.344 -7.188,1.797 -8.945,0.875 -12.691,-0.016 -1.04,1.372 -2.02,2.661 -2.958,3.899 -0.402,1.098 0.055,1.73 0.711,1.726 1.664,0 -3.062,3.446 -3.722,5.735 -0.078,0.273 -1.637,1.758 -3.059,0.687 -4.457,7.473 -8.812,9.985 -10.254,15.895 v 0" /><path
         id="path52"
         style="fill:#ffffff;fill-opacity:1;fill-rule:evenodd;stroke:none"
         d="m 421.246,487.352 c 0,0 -0.215,1.515 1.367,2.628 1.582,1.11 3.5,0.641 3.5,0.641 0,0 -1.05,-2.637 -2.34,-3.437 -1.277,-0.813 -2.527,0.168 -2.527,0.168 z m 6.57,10.011 -1.679,0.235 c 0.113,1.55 0.461,4.074 1.554,6.023 0.977,1.746 2.122,2.57 3.215,3.274 0.485,-1.774 0.824,-3.657 0.211,-5.844 -0.527,-1.887 -2.133,-3.059 -3.301,-3.688 z m -13.668,13.657 c 1.168,-3.973 5.368,-4.555 9.438,-5.36 l -0.047,-0.074 c -0.41,-0.738 -0.711,-1.555 -0.926,-2.379 -2.371,0.305 -4.972,0.215 -7.265,0.559 -1.5,1.562 -2.41,3.683 -2.129,6.765 l 0.929,0.489 z m 2.461,-23.84 c -3.457,-4.203 -6.906,-8.395 -10.355,-12.59 0.555,-3.363 2.629,-5.918 5.789,-7.895 l 9.93,1.914 2.414,2.551 5.109,-0.812 12.629,3.863 c 1.066,0.148 11.277,-3.527 11.277,-3.527 l 10.043,4.863 -13.117,29.078 -14.172,-0.977 c -0.027,-0.789 -0.121,-1.554 -0.332,-2.277 -1.011,-3.633 -4.535,-5.402 -5.883,-5.961 1.489,0.973 3.2,2.539 3.864,4.899 1.172,4.203 -1.055,10.164 -1.063,10.175 l -0.515,1.387 -1.348,-0.605 c -0.016,-0.012 -4.082,-1.731 -6.246,-5.59 -0.766,-1.367 -1.153,-3.008 -1.328,-4.555 l -0.043,-0.058 c -5.125,1.941 -13.008,-0.719 -15.559,4.792 l -0.851,-0.628 c 0.429,-7.754 7.507,-8.469 12.148,-9.625 l -3.246,-4.18 0.855,-4.242 v 0" /><path
         id="path54"
         style="fill:#ffffff;fill-opacity:1;fill-rule:evenodd;stroke:none"
         d="m 263.301,534.441 c 0.582,0.582 1.387,0.946 2.281,0.946 0.883,0 1.688,-0.364 2.27,-0.946 0.586,-0.578 0.949,-1.382 0.949,-2.277 0,-0.891 -0.363,-1.691 -0.949,-2.273 -0.582,-0.582 -1.387,-0.946 -2.27,-0.946 -0.894,0 -1.699,0.364 -2.281,0.946 -0.586,0.582 -0.946,1.382 -0.946,2.273 0,0.895 0.36,1.699 0.946,2.277 z m 2.281,5.446 c 2.129,0 4.051,-0.864 5.453,-2.266 1.399,-1.394 2.254,-3.32 2.254,-5.457 0,-2.129 -0.855,-4.059 -2.254,-5.461 -1.402,-1.39 -3.324,-2.254 -5.453,-2.254 -2.141,0 -4.066,0.864 -5.465,2.254 -1.394,1.402 -2.262,3.332 -2.262,5.461 0,2.137 0.868,4.063 2.262,5.457 1.399,1.402 3.324,2.266 5.465,2.266 z m 0.133,18.605 1.805,-1.047 v -2.074 h -1.504 V 549 h 1.504 v -1.371 c -3.672,-0.621 -7.012,-1.859 -9.665,-4.348 v -5.832 c 0.329,0.481 0.704,0.926 1.106,1.328 1.691,1.692 4.031,2.743 6.621,2.743 2.582,0 4.91,-1.051 6.609,-2.743 1.696,-1.691 2.743,-4.031 2.743,-6.613 h 4.484 c -0.172,0.84 -0.254,1.703 -0.254,2.586 0,3.629 1.473,6.906 3.844,9.281 2.379,2.375 5.652,3.844 9.277,3.844 3.621,0 6.91,-1.469 9.281,-3.844 0.133,-0.129 0.258,-0.261 0.387,-0.398 v 6.324 l -1.543,0.199 -1.726,8.059 h 0.687 v 5.23 h -20.234 v -5.23 h 0.722 l -2.511,-9.957 c -2.575,-0.028 -5.129,-0.074 -7.578,-0.332 V 549 h 1.5 v 6.371 h -1.5 v 2.719 0.644 l -0.567,0.329 -2.379,1.367 -1.109,-1.938 z m 23.156,-20.324 c 0.875,0.871 2.082,1.41 3.414,1.41 1.336,0 2.539,-0.539 3.418,-1.41 0.867,-0.871 1.41,-2.078 1.41,-3.418 0,-1.332 -0.543,-2.531 -1.41,-3.41 -0.879,-0.871 -2.082,-1.414 -3.418,-1.414 -1.332,0 -2.539,0.543 -3.414,1.414 -0.875,0.879 -1.41,2.078 -1.41,3.41 0,1.34 0.535,2.547 1.41,3.418 z m 3.414,6.844 c -2.832,0 -5.39,-1.157 -7.25,-3.004 -1.855,-1.863 -3.004,-4.426 -3.004,-7.258 0,-2.832 1.149,-5.391 3.004,-7.25 1.86,-1.855 4.418,-3.004 7.25,-3.004 2.832,0 5.395,1.149 7.25,3.004 1.856,1.859 3.008,4.418 3.008,7.25 0,2.832 -1.152,5.395 -3.008,7.258 -1.855,1.847 -4.418,3.004 -7.25,3.004 z m 2.778,5.597 h -9.711 l -1.789,-3.148 h -3.067 l 2.586,10.754 h 10.602 l 1.379,-7.606 v 0" /></g></g></svg>